<svg xmlns="http://www.w3.org/2000/svg" xmlns:svg="http://www.w3.org/2000/svg" id="svg2" width="94.2" height="107.653" version="1.1" viewBox="0 0 94.2 107.653" xml:space="preserve"><metadata id="metadata8"/><g id="g10" transform="matrix(1.3333333,0,0,-1.3333333,0,107.65333)"><g id="g12" transform="scale(0.1)"><path id="path14" d="m 630.781,454.164 h -37.859 v 113.535 c 0,132.149 -107.531,239.699 -239.692,239.699 -132.144,0 -239.683,-107.55 -239.683,-239.699 V 454.164 H 75.6953 C 33.8984,454.164 0,420.258 0,378.477 V 75.7031 C 0,33.9063 33.8984,0 75.6953,0 H 630.781 c 41.785,0 75.684,33.9063 75.684,75.7031 V 378.477 c 0,41.781 -33.899,75.687 -75.684,75.687 m -164.004,0 H 239.688 v 113.535 c 0,62.61 50.937,113.539 113.542,113.539 62.61,0 113.547,-50.929 113.547,-113.539 V 454.164" style="fill:#29285c;fill-opacity:1;fill-rule:nonzero;stroke:none"/><path id="path16" d="m 317.063,85.8594 v 0 c -12.161,0 -23.657,5.4492 -31.36,14.8436 l -90.168,110.274 c -14.148,17.293 -11.582,42.812 5.715,56.953 17.297,14.16 42.805,11.621 56.965,-5.696 l 58.848,-71.961 133.875,163.711 c 14.152,17.313 39.648,19.844 56.972,5.704 17.305,-14.161 19.856,-39.668 5.684,-56.973 L 348.391,100.703 C 340.703,91.3086 329.199,85.8594 317.063,85.8594" style="fill:#27cfb7;fill-opacity:1;fill-rule:nonzero;stroke:none"/></g></g></svg>