<svg xmlns="http://www.w3.org/2000/svg" xmlns:svg="http://www.w3.org/2000/svg" id="svg2" width="60.24" height="68.84" version="1.1" viewBox="0 0 60.24 68.84" xml:space="preserve"><metadata id="metadata8"/><g id="g10" transform="matrix(1.3333333,0,0,-1.3333333,0,68.84)"><g id="g12" transform="scale(0.1)"><path id="path14" d="M 298.496,290.434 H 153.27 v 72.609 c 0,40.031 32.589,72.598 72.609,72.598 40.027,0 72.617,-32.567 72.617,-72.598 z m 104.883,0 H 379.16 v 72.609 c 0,84.5 -68.769,153.273 -153.281,153.273 -84.512,0 -153.2618,-68.773 -153.2618,-153.273 V 290.434 H 48.4063 C 21.6602,290.434 0,268.746 0,242.02 V 48.4063 C 0,21.6875 21.6602,0 48.4063,0 H 403.379 c 26.719,0 48.398,21.6875 48.398,48.4063 V 242.02 c 0,26.726 -21.679,48.414 -48.398,48.414" style="fill:#272631;fill-opacity:1;fill-rule:nonzero;stroke:none"/><path id="path16" d="m 202.742,54.9023 v 0 c -7.762,0 -15.113,3.4844 -20.047,9.5118 l -57.668,70.5079 c -9.043,11.062 -7.41,27.375 3.672,36.418 11.047,9.051 27.364,7.43 36.43,-3.645 l 37.613,-46.015 85.625,104.668 c 9.043,11.093 25.356,12.715 36.438,3.652 11.054,-9.043 12.675,-25.352 3.633,-36.426 L 222.773,64.4141 c -4.902,-6.0274 -12.253,-9.5118 -20.031,-9.5118" style="fill:#5ac6aa;fill-opacity:1;fill-rule:nonzero;stroke:none"/></g></g></svg>